G04*
G04 #@! TF.GenerationSoftware,Altium Limited,Altium Designer,24.9.1 (31)*
G04*
G04 Layer_Color=32768*
%FSLAX44Y44*%
%MOMM*%
G71*
G04*
G04 #@! TF.SameCoordinates,570542E3-00E4-430B-A899-0EB25D94C372*
G04*
G04*
G04 #@! TF.FilePolarity,Positive*
G04*
G01*
G75*
%ADD11C,0.0500*%
D11*
X449400Y640090D02*
Y800090D01*
X363400Y640090D02*
X449400D01*
X363400D02*
Y800090D01*
X449400D01*
X1296075Y822925D02*
X1345525D01*
X1296075Y713775D02*
Y822925D01*
Y713775D02*
X1345525D01*
Y822925D01*
X1294430Y679750D02*
X1331930D01*
X1294430Y602950D02*
X1331930D01*
Y679750D01*
X1294430Y602950D02*
Y679750D01*
X990600Y753110D02*
Y859790D01*
Y753110D02*
X1093470D01*
X990600Y859790D02*
X1093470D01*
Y753110D02*
Y859790D01*
X1053180Y615090D02*
Y710790D01*
X1154080Y615090D02*
Y710790D01*
X1053180D02*
X1154080D01*
X1053180Y615090D02*
X1154080D01*
X538480Y633730D02*
X574040D01*
Y651510D01*
X538480D02*
X574040D01*
X538480Y633730D02*
Y651510D01*
X524510Y693420D02*
X560070D01*
Y711200D01*
X524510D02*
X560070D01*
X524510Y693420D02*
Y711200D01*
X532130Y784860D02*
X567690D01*
Y802640D01*
X532130D02*
X567690D01*
X532130Y784860D02*
Y802640D01*
X513080Y830580D02*
X548640D01*
X513080Y812800D02*
Y830580D01*
Y812800D02*
X548640D01*
Y830580D01*
X498900Y715400D02*
X567900D01*
X498900D02*
Y757400D01*
X567900D01*
Y715400D02*
Y757400D01*
X588150Y608490D02*
Y628490D01*
X542150D02*
X588150D01*
X542150Y608490D02*
Y628490D01*
Y608490D02*
X588150D01*
M02*
