G04*
G04 #@! TF.GenerationSoftware,Altium Limited,Altium Designer,24.9.1 (31)*
G04*
G04 Layer_Color=128*
%FSLAX44Y44*%
%MOMM*%
G71*
G04*
G04 #@! TF.SameCoordinates,570542E3-00E4-430B-A899-0EB25D94C372*
G04*
G04*
G04 #@! TF.FilePolarity,Positive*
G04*
G01*
G75*
%ADD12C,0.1270*%
D12*
X383650Y684090D02*
X429150D01*
X406400Y661340D02*
Y706840D01*
X383650Y756090D02*
X429150D01*
X406400Y733340D02*
Y778840D01*
X874268Y621030D02*
X883412D01*
X878840Y616458D02*
Y625602D01*
X899668Y621030D02*
X908812D01*
X904240Y616458D02*
Y625602D01*
X899668Y773430D02*
X908812D01*
X904240Y768858D02*
Y778002D01*
X874268Y773430D02*
X883412D01*
X878840Y768858D02*
Y778002D01*
X671068Y621030D02*
X680212D01*
X675640Y616458D02*
Y625602D01*
X696468Y621030D02*
X705612D01*
X701040Y616458D02*
Y625602D01*
X721868Y621030D02*
X731012D01*
X726440Y616458D02*
Y625602D01*
X747268Y621030D02*
X756412D01*
X751840Y616458D02*
Y625602D01*
X772668Y621030D02*
X781812D01*
X777240Y616458D02*
Y625602D01*
X798068Y621030D02*
X807212D01*
X802640Y616458D02*
Y625602D01*
X823468Y621030D02*
X832612D01*
X828040Y616458D02*
Y625602D01*
X848868Y621030D02*
X858012D01*
X853440Y616458D02*
Y625602D01*
X848868Y773430D02*
X858012D01*
X853440Y768858D02*
Y778002D01*
X823468Y773430D02*
X832612D01*
X828040Y768858D02*
Y778002D01*
X798068Y773430D02*
X807212D01*
X802640Y768858D02*
Y778002D01*
X772668Y773430D02*
X781812D01*
X777240Y768858D02*
Y778002D01*
X747268Y773430D02*
X756412D01*
X751840Y768858D02*
Y778002D01*
X721868Y773430D02*
X731012D01*
X726440Y768858D02*
Y778002D01*
X696468Y773430D02*
X705612D01*
X701040Y768858D02*
Y778002D01*
X671068Y773430D02*
X680212D01*
X675640Y768858D02*
Y778002D01*
X1306550Y793750D02*
X1318850D01*
X1312700Y787600D02*
Y799900D01*
X1306550Y768350D02*
X1318850D01*
X1312700Y762200D02*
Y774500D01*
X1306550Y742950D02*
X1318850D01*
X1312700Y736800D02*
Y749100D01*
X1075000Y844550D02*
X1084000D01*
X1079500Y840050D02*
Y849050D01*
X1075000Y819150D02*
X1084000D01*
X1079500Y814650D02*
Y823650D01*
X1075000Y793750D02*
X1084000D01*
X1079500Y789250D02*
Y798250D01*
X1075000Y768350D02*
X1084000D01*
X1079500Y763850D02*
Y772850D01*
X998800Y768350D02*
X1007800D01*
X1003300Y763850D02*
Y772850D01*
X998800Y793750D02*
X1007800D01*
X1003300Y789250D02*
Y798250D01*
X998800Y819150D02*
X1007800D01*
X1003300Y814650D02*
Y823650D01*
X998800Y844550D02*
X1007800D01*
X1003300Y840050D02*
Y849050D01*
X1061630Y623240D02*
X1069430D01*
X1065530Y619340D02*
Y627140D01*
X1087030Y623240D02*
X1094830D01*
X1090930Y619340D02*
Y627140D01*
X1112430Y623240D02*
X1120230D01*
X1116330Y619340D02*
Y627140D01*
X1137830Y623240D02*
X1145630D01*
X1141730Y619340D02*
Y627140D01*
X1137830Y702640D02*
X1145630D01*
X1141730Y698740D02*
Y706540D01*
X1112430Y702640D02*
X1120230D01*
X1116330Y698740D02*
Y706540D01*
X1087030Y702640D02*
X1094830D01*
X1090930Y698740D02*
Y706540D01*
X1061630Y702640D02*
X1069430D01*
X1065530Y698740D02*
Y706540D01*
X562650Y642620D02*
X567650D01*
X565150Y640120D02*
Y645120D01*
X544870Y642620D02*
X549870D01*
X547370Y640120D02*
Y645120D01*
X548680Y702310D02*
X553680D01*
X551180Y699810D02*
Y704810D01*
X530900Y702310D02*
X535900D01*
X533400Y699810D02*
Y704810D01*
X556300Y793750D02*
X561300D01*
X558800Y791250D02*
Y796250D01*
X538520Y793750D02*
X543520D01*
X541020Y791250D02*
Y796250D01*
X519470Y821690D02*
X524470D01*
X521970Y819190D02*
Y824190D01*
X537250Y821690D02*
X542250D01*
X539750Y819190D02*
Y824190D01*
X1087930Y593090D02*
X1093930D01*
X1090930Y590090D02*
Y596090D01*
X1197150Y593090D02*
X1203150D01*
X1200150Y590090D02*
Y596090D01*
X1038400Y525780D02*
X1044400D01*
X1041400Y522780D02*
Y528780D01*
X1147620Y525780D02*
X1153620D01*
X1150620Y522780D02*
Y528780D01*
X1146350Y558800D02*
X1152350D01*
X1149350Y555800D02*
Y561800D01*
X1037130Y558800D02*
X1043130D01*
X1040130Y555800D02*
Y561800D01*
X721340Y576580D02*
X731540D01*
X726440Y571480D02*
Y581680D01*
X645140Y576580D02*
X655340D01*
X650240Y571480D02*
Y581680D01*
X670540Y576580D02*
X680740D01*
X675640Y571480D02*
Y581680D01*
X695940Y576580D02*
X706140D01*
X701040Y571480D02*
Y581680D01*
X503750Y742950D02*
X513050D01*
X508400Y738300D02*
Y747600D01*
X528750Y742950D02*
X538050D01*
X533400Y738300D02*
Y747600D01*
X553750Y742950D02*
X563050D01*
X558400Y738300D02*
Y747600D01*
X873740Y839470D02*
X883940D01*
X878840Y834370D02*
Y844570D01*
X797540Y839470D02*
X807740D01*
X802640Y834370D02*
Y844570D01*
X822940Y839470D02*
X833140D01*
X828040Y834370D02*
Y844570D01*
X848340Y839470D02*
X858540D01*
X853440Y834370D02*
Y844570D01*
X579080Y615950D02*
X586780D01*
X582930Y612100D02*
Y619800D01*
X561300Y615950D02*
X569000D01*
X565150Y612100D02*
Y619800D01*
X543520Y615950D02*
X551220D01*
X547370Y612100D02*
Y619800D01*
X586280Y798830D02*
X592280D01*
X589280Y795830D02*
Y801830D01*
X586280Y689610D02*
X592280D01*
X589280Y686610D02*
Y692610D01*
X626920Y668020D02*
X632920D01*
X629920Y665020D02*
Y671020D01*
X517700Y668020D02*
X523700D01*
X520700Y665020D02*
Y671020D01*
X1043432Y490220D02*
X1054608D01*
X1049020Y484632D02*
Y495808D01*
X1145032Y490220D02*
X1156208D01*
X1150620Y484632D02*
Y495808D01*
X845360Y681498D02*
X851360D01*
X848360Y678498D02*
Y684498D01*
X954580Y681498D02*
X960580D01*
X957580Y678498D02*
Y684498D01*
X1110790Y793750D02*
X1116790D01*
X1113790Y790750D02*
Y796750D01*
X1220010Y793750D02*
X1226010D01*
X1223010Y790750D02*
Y796750D01*
X1184450Y734060D02*
X1190450D01*
X1187450Y731060D02*
Y737060D01*
X1075230Y734060D02*
X1081230D01*
X1078230Y731060D02*
Y737060D01*
X646684Y839470D02*
X653796D01*
X650240Y835914D02*
Y843026D01*
X1164844Y680720D02*
X1171956D01*
X1168400Y677164D02*
Y684276D01*
X1164844Y622300D02*
X1171956D01*
X1168400Y618744D02*
Y625856D01*
X646684Y618490D02*
X653796D01*
X650240Y614934D02*
Y622046D01*
X646684Y725170D02*
X653796D01*
X650240Y721614D02*
Y728726D01*
M02*
