G04*
G04 #@! TF.GenerationSoftware,Altium Limited,Altium Designer,24.9.1 (31)*
G04*
G04 Layer_Color=65535*
%FSLAX44Y44*%
%MOMM*%
G71*
G04*
G04 #@! TF.SameCoordinates,570542E3-00E4-430B-A899-0EB25D94C372*
G04*
G04*
G04 #@! TF.FilePolarity,Positive*
G04*
G01*
G75*
%ADD10C,0.2000*%
%ADD11C,0.0500*%
%ADD12C,0.1270*%
%ADD13C,0.1000*%
%ADD14C,0.2540*%
%ADD15C,0.1524*%
G36*
X1079500Y486405D02*
X1060398D01*
Y494030D01*
X1079500D01*
Y486405D01*
D02*
G37*
G36*
X1088390Y477506D02*
X1083291D01*
Y502920D01*
X1088390D01*
Y477506D01*
D02*
G37*
G36*
X1139190Y486404D02*
X1120174D01*
Y494030D01*
X1139190D01*
Y486404D01*
D02*
G37*
G36*
X592604Y759903D02*
X592622Y759885D01*
X592641Y759829D01*
X592659Y759755D01*
X592752Y759570D01*
X592863Y759311D01*
X593011Y758996D01*
X593215Y758644D01*
X593474Y758256D01*
X593770Y757848D01*
X593789Y757830D01*
X593807Y757793D01*
X593863Y757737D01*
X593937Y757663D01*
X594122Y757459D01*
X594363Y757237D01*
X594659Y756978D01*
X595029Y756719D01*
X595418Y756478D01*
X595844Y756293D01*
Y754293D01*
X582957D01*
Y756756D01*
X592233D01*
X592215Y756774D01*
X592178Y756811D01*
X592122Y756885D01*
X592030Y756996D01*
X591919Y757126D01*
X591808Y757274D01*
X591678Y757459D01*
X591530Y757663D01*
X591382Y757885D01*
X591233Y758126D01*
X591067Y758385D01*
X590919Y758663D01*
X590641Y759256D01*
X590382Y759922D01*
X592604D01*
Y759903D01*
D02*
G37*
G36*
X589882Y750590D02*
X590178Y750571D01*
X590530Y750534D01*
X590900Y750497D01*
X591308Y750460D01*
X591733Y750386D01*
X592159Y750312D01*
X592604Y750201D01*
X593030Y750090D01*
X593437Y749942D01*
X593826Y749775D01*
X594196Y749590D01*
X594511Y749368D01*
X594529Y749349D01*
X594566Y749312D01*
X594641Y749257D01*
X594715Y749164D01*
X594826Y749071D01*
X594937Y748942D01*
X595048Y748775D01*
X595177Y748608D01*
X595307Y748405D01*
X595418Y748201D01*
X595529Y747960D01*
X595640Y747701D01*
X595714Y747423D01*
X595789Y747109D01*
X595826Y746794D01*
X595844Y746460D01*
Y746275D01*
X595826Y746146D01*
X595807Y745998D01*
X595770Y745812D01*
X595733Y745627D01*
X595677Y745405D01*
X595603Y745164D01*
X595511Y744942D01*
X595418Y744701D01*
X595289Y744461D01*
X595122Y744220D01*
X594955Y743979D01*
X594752Y743757D01*
X594511Y743553D01*
X594492Y743535D01*
X594437Y743498D01*
X594344Y743442D01*
X594215Y743350D01*
X594030Y743257D01*
X593807Y743146D01*
X593567Y743035D01*
X593252Y742924D01*
X592919Y742813D01*
X592530Y742683D01*
X592104Y742590D01*
X591622Y742498D01*
X591104Y742405D01*
X590548Y742350D01*
X589937Y742313D01*
X589271Y742294D01*
X589252D01*
X589234D01*
X589178D01*
X589104D01*
X588919D01*
X588678Y742313D01*
X588382Y742331D01*
X588030Y742368D01*
X587660Y742405D01*
X587252Y742442D01*
X586827Y742516D01*
X586382Y742609D01*
X585956Y742702D01*
X585530Y742831D01*
X585104Y742961D01*
X584716Y743146D01*
X584345Y743331D01*
X584030Y743553D01*
X584012Y743572D01*
X583975Y743609D01*
X583901Y743664D01*
X583827Y743738D01*
X583734Y743850D01*
X583623Y743979D01*
X583493Y744146D01*
X583382Y744313D01*
X583253Y744516D01*
X583123Y744720D01*
X583012Y744961D01*
X582920Y745220D01*
X582845Y745498D01*
X582771Y745812D01*
X582734Y746127D01*
X582716Y746460D01*
Y746535D01*
X582734Y746646D01*
Y746775D01*
X582753Y746923D01*
X582790Y747109D01*
X582827Y747312D01*
X582901Y747534D01*
X582975Y747775D01*
X583068Y748016D01*
X583179Y748275D01*
X583327Y748516D01*
X583475Y748775D01*
X583679Y749016D01*
X583882Y749257D01*
X584142Y749479D01*
X584160Y749497D01*
X584216Y749534D01*
X584308Y749590D01*
X584419Y749645D01*
X584586Y749738D01*
X584790Y749830D01*
X585049Y749942D01*
X585327Y750034D01*
X585660Y750145D01*
X586030Y750256D01*
X586456Y750349D01*
X586919Y750423D01*
X587438Y750497D01*
X588012Y750553D01*
X588623Y750590D01*
X589289Y750608D01*
X589308D01*
X589326D01*
X589382D01*
X589456D01*
X589641D01*
X589882Y750590D01*
D02*
G37*
G36*
X595770Y737498D02*
X590067D01*
X595770Y732240D01*
Y728759D01*
X590771Y733610D01*
X582957Y728518D01*
Y731869D01*
X588974Y735406D01*
X586827Y737498D01*
X582957D01*
Y740091D01*
X595770D01*
Y737498D01*
D02*
G37*
G36*
X581356Y669511D02*
X586448Y661697D01*
X583096D01*
X579560Y667714D01*
X577467Y665567D01*
Y661697D01*
X574875D01*
Y674510D01*
X577467D01*
Y668807D01*
X582726Y674510D01*
X586207D01*
X581356Y669511D01*
D02*
G37*
G36*
X568450Y674566D02*
X568598D01*
X568764Y674547D01*
X568950Y674510D01*
X569172Y674454D01*
X569394Y674399D01*
X569653Y674306D01*
X569912Y674214D01*
X570172Y674084D01*
X570449Y673936D01*
X570709Y673769D01*
X570968Y673566D01*
X571227Y673325D01*
X571468Y673066D01*
X571486Y673047D01*
X571523Y672992D01*
X571579Y672899D01*
X571671Y672769D01*
X571764Y672603D01*
X571875Y672399D01*
X571986Y672159D01*
X572097Y671881D01*
X572209Y671547D01*
X572338Y671177D01*
X572431Y670770D01*
X572523Y670325D01*
X572616Y669825D01*
X572671Y669288D01*
X572708Y668714D01*
X572727Y668085D01*
Y668066D01*
Y668048D01*
Y667992D01*
Y667937D01*
Y667751D01*
X572708Y667511D01*
X572690Y667215D01*
X572653Y666881D01*
X572616Y666529D01*
X572560Y666141D01*
X572486Y665715D01*
X572412Y665307D01*
X572301Y664881D01*
X572171Y664456D01*
X572023Y664067D01*
X571838Y663678D01*
X571653Y663326D01*
X571412Y663011D01*
X571394Y662993D01*
X571357Y662937D01*
X571283Y662863D01*
X571172Y662771D01*
X571042Y662660D01*
X570894Y662511D01*
X570709Y662382D01*
X570505Y662234D01*
X570283Y662085D01*
X570023Y661956D01*
X569746Y661826D01*
X569450Y661697D01*
X569116Y661604D01*
X568783Y661530D01*
X568431Y661474D01*
X568042Y661456D01*
X567894D01*
X567802Y661474D01*
X567672D01*
X567524Y661493D01*
X567172Y661548D01*
X566783Y661660D01*
X566394Y661789D01*
X565987Y661993D01*
X565802Y662104D01*
X565617Y662252D01*
X565598Y662271D01*
X565579Y662289D01*
X565524Y662345D01*
X565468Y662400D01*
X565394Y662493D01*
X565302Y662585D01*
X565228Y662715D01*
X565117Y662845D01*
X565024Y663011D01*
X564913Y663178D01*
X564820Y663382D01*
X564728Y663604D01*
X564635Y663826D01*
X564561Y664085D01*
X564487Y664344D01*
X564431Y664641D01*
X566802Y664919D01*
Y664881D01*
X566820Y664789D01*
X566839Y664659D01*
X566894Y664511D01*
X566950Y664326D01*
X567024Y664141D01*
X567116Y663974D01*
X567246Y663826D01*
X567265Y663808D01*
X567320Y663771D01*
X567394Y663715D01*
X567505Y663659D01*
X567653Y663604D01*
X567802Y663548D01*
X568005Y663511D01*
X568209Y663493D01*
X568246D01*
X568339Y663511D01*
X568468Y663530D01*
X568653Y663585D01*
X568857Y663659D01*
X569061Y663789D01*
X569283Y663956D01*
X569487Y664178D01*
X569505Y664215D01*
X569542Y664252D01*
X569579Y664326D01*
X569616Y664400D01*
X569672Y664511D01*
X569709Y664641D01*
X569783Y664807D01*
X569838Y664993D01*
X569894Y665196D01*
X569949Y665437D01*
X570005Y665696D01*
X570061Y665992D01*
X570098Y666326D01*
X570135Y666696D01*
X570172Y667085D01*
X570153Y667066D01*
X570135Y667048D01*
X570079Y666992D01*
X570005Y666918D01*
X569912Y666844D01*
X569801Y666752D01*
X569542Y666548D01*
X569209Y666344D01*
X568801Y666178D01*
X568579Y666104D01*
X568357Y666067D01*
X568116Y666030D01*
X567857Y666011D01*
X567709D01*
X567598Y666030D01*
X567468Y666048D01*
X567320Y666067D01*
X566968Y666159D01*
X566561Y666289D01*
X566357Y666400D01*
X566135Y666511D01*
X565913Y666640D01*
X565691Y666789D01*
X565468Y666974D01*
X565265Y667178D01*
X565246Y667196D01*
X565209Y667233D01*
X565172Y667307D01*
X565098Y667381D01*
X565005Y667511D01*
X564913Y667640D01*
X564820Y667807D01*
X564728Y667992D01*
X564617Y668196D01*
X564524Y668437D01*
X564431Y668677D01*
X564339Y668955D01*
X564265Y669233D01*
X564228Y669548D01*
X564191Y669881D01*
X564172Y670214D01*
Y670233D01*
Y670307D01*
Y670399D01*
X564191Y670547D01*
X564209Y670714D01*
X564228Y670899D01*
X564265Y671122D01*
X564320Y671344D01*
X564450Y671844D01*
X564543Y672121D01*
X564654Y672381D01*
X564783Y672640D01*
X564950Y672899D01*
X565117Y673140D01*
X565320Y673381D01*
X565339Y673399D01*
X565376Y673436D01*
X565431Y673492D01*
X565524Y673566D01*
X565654Y673658D01*
X565783Y673769D01*
X565950Y673862D01*
X566135Y673992D01*
X566320Y674103D01*
X566561Y674195D01*
X566802Y674306D01*
X567061Y674399D01*
X567339Y674473D01*
X567635Y674529D01*
X567931Y674566D01*
X568264Y674584D01*
X568357D01*
X568450Y674566D01*
D02*
G37*
G36*
X1178501Y800222D02*
X1178705D01*
X1178908Y800203D01*
X1179149D01*
X1179630Y800147D01*
X1180130Y800092D01*
X1180593Y799999D01*
X1180797Y799944D01*
X1180982Y799888D01*
X1181001D01*
X1181019Y799870D01*
X1181130Y799814D01*
X1181297Y799722D01*
X1181519Y799611D01*
X1181760Y799425D01*
X1182001Y799222D01*
X1182241Y798962D01*
X1182463Y798648D01*
Y798629D01*
X1182482Y798611D01*
X1182519Y798555D01*
X1182556Y798500D01*
X1182648Y798314D01*
X1182760Y798074D01*
X1182852Y797777D01*
X1182945Y797444D01*
X1183019Y797055D01*
X1183037Y796648D01*
Y796629D01*
Y796592D01*
Y796500D01*
X1183019Y796407D01*
Y796277D01*
X1183000Y796148D01*
X1182926Y795815D01*
X1182834Y795426D01*
X1182686Y795037D01*
X1182463Y794630D01*
X1182334Y794444D01*
X1182186Y794259D01*
X1182167Y794241D01*
X1182149Y794222D01*
X1182093Y794167D01*
X1182019Y794111D01*
X1181945Y794037D01*
X1181834Y793944D01*
X1181704Y793852D01*
X1181556Y793759D01*
X1181389Y793648D01*
X1181186Y793556D01*
X1180982Y793463D01*
X1180760Y793370D01*
X1180501Y793278D01*
X1180241Y793204D01*
X1179964Y793130D01*
X1179649Y793074D01*
X1179667D01*
X1179686Y793056D01*
X1179797Y792982D01*
X1179945Y792889D01*
X1180130Y792759D01*
X1180352Y792593D01*
X1180575Y792426D01*
X1180815Y792222D01*
X1181019Y792000D01*
X1181038Y791982D01*
X1181130Y791889D01*
X1181241Y791741D01*
X1181408Y791519D01*
X1181630Y791241D01*
X1181741Y791056D01*
X1181871Y790871D01*
X1182019Y790667D01*
X1182167Y790445D01*
X1182334Y790186D01*
X1182500Y789926D01*
X1184074Y787427D01*
X1180964D01*
X1179112Y790204D01*
X1179093Y790223D01*
X1179075Y790278D01*
X1179019Y790352D01*
X1178945Y790445D01*
X1178871Y790556D01*
X1178779Y790704D01*
X1178575Y791000D01*
X1178334Y791334D01*
X1178112Y791630D01*
X1177908Y791908D01*
X1177816Y792000D01*
X1177742Y792093D01*
X1177723Y792111D01*
X1177686Y792148D01*
X1177612Y792222D01*
X1177519Y792315D01*
X1177390Y792389D01*
X1177260Y792482D01*
X1177112Y792556D01*
X1176964Y792630D01*
X1176945D01*
X1176890Y792648D01*
X1176797Y792685D01*
X1176649Y792704D01*
X1176464Y792741D01*
X1176242Y792759D01*
X1175983Y792778D01*
X1175149D01*
Y787427D01*
X1172557D01*
Y800240D01*
X1178334D01*
X1178501Y800222D01*
D02*
G37*
G36*
X1158355Y787427D02*
X1155892D01*
Y796703D01*
X1155873Y796685D01*
X1155836Y796648D01*
X1155762Y796592D01*
X1155651Y796500D01*
X1155522Y796389D01*
X1155374Y796277D01*
X1155188Y796148D01*
X1154985Y796000D01*
X1154762Y795852D01*
X1154522Y795704D01*
X1154263Y795537D01*
X1153985Y795389D01*
X1153392Y795111D01*
X1152726Y794852D01*
Y797074D01*
X1152744D01*
X1152763Y797092D01*
X1152818Y797111D01*
X1152892Y797129D01*
X1153077Y797222D01*
X1153337Y797333D01*
X1153652Y797481D01*
X1154003Y797685D01*
X1154392Y797944D01*
X1154800Y798240D01*
X1154818Y798259D01*
X1154855Y798277D01*
X1154911Y798333D01*
X1154985Y798407D01*
X1155188Y798592D01*
X1155411Y798833D01*
X1155670Y799129D01*
X1155929Y799499D01*
X1156170Y799888D01*
X1156355Y800314D01*
X1158355D01*
Y787427D01*
D02*
G37*
G36*
X1166502Y800296D02*
X1166650Y800277D01*
X1166835Y800240D01*
X1167020Y800203D01*
X1167243Y800147D01*
X1167483Y800073D01*
X1167706Y799981D01*
X1167946Y799888D01*
X1168187Y799759D01*
X1168428Y799592D01*
X1168669Y799425D01*
X1168891Y799222D01*
X1169094Y798981D01*
X1169113Y798962D01*
X1169150Y798907D01*
X1169205Y798814D01*
X1169298Y798685D01*
X1169391Y798500D01*
X1169502Y798277D01*
X1169613Y798037D01*
X1169724Y797722D01*
X1169835Y797389D01*
X1169965Y797000D01*
X1170057Y796574D01*
X1170150Y796092D01*
X1170242Y795574D01*
X1170298Y795018D01*
X1170335Y794407D01*
X1170353Y793741D01*
Y793722D01*
Y793704D01*
Y793648D01*
Y793574D01*
Y793389D01*
X1170335Y793148D01*
X1170316Y792852D01*
X1170279Y792500D01*
X1170242Y792130D01*
X1170205Y791722D01*
X1170131Y791297D01*
X1170039Y790852D01*
X1169946Y790426D01*
X1169817Y790000D01*
X1169687Y789575D01*
X1169502Y789186D01*
X1169317Y788815D01*
X1169094Y788501D01*
X1169076Y788482D01*
X1169039Y788445D01*
X1168983Y788371D01*
X1168909Y788297D01*
X1168798Y788204D01*
X1168669Y788093D01*
X1168502Y787964D01*
X1168335Y787852D01*
X1168131Y787723D01*
X1167928Y787593D01*
X1167687Y787482D01*
X1167428Y787390D01*
X1167150Y787316D01*
X1166835Y787241D01*
X1166521Y787204D01*
X1166187Y787186D01*
X1166113D01*
X1166002Y787204D01*
X1165872D01*
X1165724Y787223D01*
X1165539Y787260D01*
X1165335Y787297D01*
X1165113Y787371D01*
X1164873Y787445D01*
X1164632Y787538D01*
X1164373Y787649D01*
X1164132Y787797D01*
X1163873Y787945D01*
X1163632Y788149D01*
X1163391Y788352D01*
X1163169Y788612D01*
X1163151Y788630D01*
X1163113Y788686D01*
X1163058Y788778D01*
X1163002Y788889D01*
X1162910Y789056D01*
X1162817Y789260D01*
X1162706Y789519D01*
X1162614Y789797D01*
X1162503Y790130D01*
X1162391Y790500D01*
X1162299Y790926D01*
X1162225Y791389D01*
X1162151Y791908D01*
X1162095Y792482D01*
X1162058Y793093D01*
X1162040Y793759D01*
Y793778D01*
Y793796D01*
Y793852D01*
Y793926D01*
Y794111D01*
X1162058Y794352D01*
X1162077Y794648D01*
X1162114Y795000D01*
X1162151Y795370D01*
X1162188Y795778D01*
X1162262Y796204D01*
X1162336Y796629D01*
X1162447Y797074D01*
X1162558Y797500D01*
X1162706Y797907D01*
X1162873Y798296D01*
X1163058Y798666D01*
X1163280Y798981D01*
X1163299Y798999D01*
X1163336Y799036D01*
X1163391Y799111D01*
X1163484Y799185D01*
X1163576Y799296D01*
X1163706Y799407D01*
X1163873Y799518D01*
X1164039Y799648D01*
X1164243Y799777D01*
X1164447Y799888D01*
X1164687Y799999D01*
X1164947Y800110D01*
X1165224Y800184D01*
X1165539Y800259D01*
X1165854Y800296D01*
X1166187Y800314D01*
X1166372D01*
X1166502Y800296D01*
D02*
G37*
G36*
X1128711Y727570D02*
X1126118D01*
Y733273D01*
X1120860Y727570D01*
X1117379D01*
X1122230Y732569D01*
X1117138Y740383D01*
X1120489D01*
X1124026Y734365D01*
X1126118Y736513D01*
Y740383D01*
X1128711D01*
Y727570D01*
D02*
G37*
G36*
X1145376Y731107D02*
X1145394Y731125D01*
X1145431Y731162D01*
X1145505Y731218D01*
X1145617Y731310D01*
X1145746Y731421D01*
X1145894Y731533D01*
X1146079Y731662D01*
X1146283Y731810D01*
X1146505Y731958D01*
X1146746Y732106D01*
X1147005Y732273D01*
X1147283Y732421D01*
X1147876Y732699D01*
X1148542Y732958D01*
Y730736D01*
X1148524D01*
X1148505Y730718D01*
X1148449Y730699D01*
X1148375Y730681D01*
X1148190Y730588D01*
X1147931Y730477D01*
X1147616Y730329D01*
X1147264Y730125D01*
X1146876Y729866D01*
X1146468Y729570D01*
X1146450Y729551D01*
X1146413Y729533D01*
X1146357Y729477D01*
X1146283Y729403D01*
X1146079Y729218D01*
X1145857Y728977D01*
X1145598Y728681D01*
X1145339Y728311D01*
X1145098Y727922D01*
X1144913Y727496D01*
X1142913D01*
Y740383D01*
X1145376D01*
Y731107D01*
D02*
G37*
G36*
X1135266Y740606D02*
X1135395D01*
X1135543Y740587D01*
X1135729Y740550D01*
X1135932Y740513D01*
X1136154Y740439D01*
X1136395Y740365D01*
X1136636Y740272D01*
X1136895Y740161D01*
X1137136Y740013D01*
X1137395Y739865D01*
X1137636Y739661D01*
X1137877Y739458D01*
X1138099Y739198D01*
X1138117Y739180D01*
X1138154Y739124D01*
X1138210Y739032D01*
X1138265Y738921D01*
X1138358Y738754D01*
X1138450Y738550D01*
X1138562Y738291D01*
X1138654Y738013D01*
X1138765Y737680D01*
X1138876Y737310D01*
X1138969Y736884D01*
X1139043Y736421D01*
X1139117Y735902D01*
X1139173Y735328D01*
X1139210Y734717D01*
X1139228Y734051D01*
Y734032D01*
Y734014D01*
Y733958D01*
Y733884D01*
Y733699D01*
X1139210Y733458D01*
X1139191Y733162D01*
X1139154Y732810D01*
X1139117Y732440D01*
X1139080Y732032D01*
X1139006Y731607D01*
X1138932Y731181D01*
X1138821Y730736D01*
X1138710Y730310D01*
X1138562Y729903D01*
X1138395Y729514D01*
X1138210Y729144D01*
X1137988Y728829D01*
X1137969Y728811D01*
X1137932Y728773D01*
X1137877Y728699D01*
X1137784Y728625D01*
X1137691Y728514D01*
X1137562Y728403D01*
X1137395Y728292D01*
X1137228Y728163D01*
X1137025Y728033D01*
X1136821Y727922D01*
X1136580Y727811D01*
X1136321Y727700D01*
X1136043Y727626D01*
X1135729Y727551D01*
X1135414Y727514D01*
X1135080Y727496D01*
X1134895D01*
X1134766Y727514D01*
X1134618Y727533D01*
X1134432Y727570D01*
X1134247Y727607D01*
X1134025Y727663D01*
X1133784Y727737D01*
X1133562Y727829D01*
X1133321Y727922D01*
X1133081Y728051D01*
X1132840Y728218D01*
X1132599Y728385D01*
X1132377Y728588D01*
X1132173Y728829D01*
X1132155Y728848D01*
X1132118Y728903D01*
X1132062Y728996D01*
X1131970Y729125D01*
X1131877Y729311D01*
X1131766Y729533D01*
X1131655Y729773D01*
X1131544Y730088D01*
X1131433Y730422D01*
X1131303Y730810D01*
X1131210Y731236D01*
X1131118Y731718D01*
X1131025Y732236D01*
X1130970Y732792D01*
X1130933Y733403D01*
X1130914Y734069D01*
Y734088D01*
Y734106D01*
Y734162D01*
Y734236D01*
Y734421D01*
X1130933Y734662D01*
X1130951Y734958D01*
X1130988Y735310D01*
X1131025Y735680D01*
X1131062Y736088D01*
X1131136Y736513D01*
X1131229Y736958D01*
X1131322Y737384D01*
X1131451Y737810D01*
X1131581Y738235D01*
X1131766Y738624D01*
X1131951Y738995D01*
X1132173Y739309D01*
X1132192Y739328D01*
X1132229Y739365D01*
X1132284Y739439D01*
X1132359Y739513D01*
X1132470Y739606D01*
X1132599Y739717D01*
X1132766Y739846D01*
X1132933Y739958D01*
X1133136Y740087D01*
X1133340Y740217D01*
X1133581Y740328D01*
X1133840Y740420D01*
X1134118Y740495D01*
X1134432Y740569D01*
X1134747Y740606D01*
X1135080Y740624D01*
X1135155D01*
X1135266Y740606D01*
D02*
G37*
G36*
X1151169Y594460D02*
X1156261Y586646D01*
X1152910D01*
X1149373Y592664D01*
X1147281Y590516D01*
Y586646D01*
X1144688D01*
Y599460D01*
X1147281D01*
Y593757D01*
X1152539Y599460D01*
X1156020D01*
X1151169Y594460D01*
D02*
G37*
G36*
X1140448Y586646D02*
X1137985D01*
Y595923D01*
X1137967Y595905D01*
X1137930Y595868D01*
X1137856Y595812D01*
X1137745Y595719D01*
X1137615Y595608D01*
X1137467Y595497D01*
X1137282Y595368D01*
X1137078Y595219D01*
X1136856Y595071D01*
X1136615Y594923D01*
X1136356Y594757D01*
X1136078Y594608D01*
X1135486Y594331D01*
X1134819Y594071D01*
Y596293D01*
X1134837D01*
X1134856Y596312D01*
X1134911Y596330D01*
X1134986Y596349D01*
X1135171Y596441D01*
X1135430Y596553D01*
X1135745Y596701D01*
X1136096Y596904D01*
X1136485Y597164D01*
X1136893Y597460D01*
X1136911Y597478D01*
X1136948Y597497D01*
X1137004Y597552D01*
X1137078Y597627D01*
X1137282Y597812D01*
X1137504Y598052D01*
X1137763Y598349D01*
X1138022Y598719D01*
X1138263Y599108D01*
X1138448Y599534D01*
X1140448D01*
Y586646D01*
D02*
G37*
G36*
X1100369Y560170D02*
X1105461Y552356D01*
X1102110D01*
X1098573Y558374D01*
X1096481Y556226D01*
Y552356D01*
X1093888D01*
Y565170D01*
X1096481D01*
Y559467D01*
X1101739Y565170D01*
X1105220D01*
X1100369Y560170D01*
D02*
G37*
G36*
X1089648Y552356D02*
X1087185D01*
Y561633D01*
X1087167Y561614D01*
X1087130Y561577D01*
X1087056Y561522D01*
X1086945Y561429D01*
X1086815Y561318D01*
X1086667Y561207D01*
X1086482Y561077D01*
X1086278Y560929D01*
X1086056Y560781D01*
X1085815Y560633D01*
X1085556Y560466D01*
X1085278Y560318D01*
X1084686Y560041D01*
X1084019Y559781D01*
Y562003D01*
X1084037D01*
X1084056Y562022D01*
X1084111Y562040D01*
X1084185Y562059D01*
X1084371Y562151D01*
X1084630Y562263D01*
X1084945Y562411D01*
X1085296Y562614D01*
X1085685Y562874D01*
X1086093Y563170D01*
X1086111Y563188D01*
X1086148Y563207D01*
X1086204Y563262D01*
X1086278Y563337D01*
X1086482Y563522D01*
X1086704Y563762D01*
X1086963Y564059D01*
X1087222Y564429D01*
X1087463Y564818D01*
X1087648Y565244D01*
X1089648D01*
Y552356D01*
D02*
G37*
G36*
X1101963Y527187D02*
X1107055Y519373D01*
X1103704D01*
X1100167Y525391D01*
X1098075Y523243D01*
Y519373D01*
X1095482D01*
Y532187D01*
X1098075D01*
Y526484D01*
X1103333Y532187D01*
X1106814D01*
X1101963Y527187D01*
D02*
G37*
G36*
X1093371Y530243D02*
X1093353Y530224D01*
X1093316Y530187D01*
X1093260Y530131D01*
X1093186Y530057D01*
X1093094Y529946D01*
X1092982Y529817D01*
X1092853Y529669D01*
X1092705Y529483D01*
X1092557Y529280D01*
X1092390Y529057D01*
X1092205Y528817D01*
X1092020Y528558D01*
X1091834Y528261D01*
X1091649Y527965D01*
X1091446Y527632D01*
X1091242Y527280D01*
X1091224Y527261D01*
X1091186Y527187D01*
X1091131Y527095D01*
X1091057Y526946D01*
X1090983Y526780D01*
X1090872Y526558D01*
X1090761Y526317D01*
X1090631Y526058D01*
X1090501Y525761D01*
X1090372Y525447D01*
X1090224Y525113D01*
X1090094Y524762D01*
X1089835Y524002D01*
X1089594Y523206D01*
Y523188D01*
X1089576Y523114D01*
X1089538Y523003D01*
X1089501Y522836D01*
X1089464Y522651D01*
X1089427Y522447D01*
X1089372Y522188D01*
X1089316Y521928D01*
X1089261Y521632D01*
X1089224Y521336D01*
X1089131Y520688D01*
X1089075Y520021D01*
X1089057Y519373D01*
X1086687D01*
Y519410D01*
Y519484D01*
X1086705Y519632D01*
Y519836D01*
X1086724Y520077D01*
X1086761Y520355D01*
X1086798Y520688D01*
X1086854Y521040D01*
X1086909Y521429D01*
X1086983Y521855D01*
X1087076Y522299D01*
X1087168Y522780D01*
X1087298Y523262D01*
X1087428Y523762D01*
X1087594Y524262D01*
X1087779Y524780D01*
X1087798Y524817D01*
X1087835Y524910D01*
X1087890Y525058D01*
X1087965Y525243D01*
X1088076Y525484D01*
X1088205Y525780D01*
X1088353Y526095D01*
X1088520Y526447D01*
X1088705Y526817D01*
X1088909Y527206D01*
X1089131Y527632D01*
X1089390Y528039D01*
X1089927Y528909D01*
X1090538Y529743D01*
X1084965D01*
Y532020D01*
X1093371D01*
Y530243D01*
D02*
G37*
%LPC*%
G36*
X589678Y748016D02*
X589271D01*
X589252D01*
X589178D01*
X589049D01*
X588900D01*
X588715D01*
X588512Y747997D01*
X588271D01*
X588030Y747979D01*
X587512Y747960D01*
X586993Y747923D01*
X586753Y747905D01*
X586530Y747868D01*
X586327Y747831D01*
X586141Y747794D01*
X586104Y747775D01*
X586012Y747757D01*
X585864Y747701D01*
X585697Y747645D01*
X585512Y747553D01*
X585327Y747460D01*
X585160Y747349D01*
X585030Y747238D01*
X585012Y747220D01*
X584993Y747183D01*
X584938Y747109D01*
X584901Y747016D01*
X584845Y746905D01*
X584790Y746775D01*
X584771Y746627D01*
X584753Y746460D01*
Y746386D01*
X584771Y746294D01*
X584790Y746201D01*
X584827Y746072D01*
X584864Y745942D01*
X584938Y745812D01*
X585030Y745683D01*
X585049Y745664D01*
X585086Y745627D01*
X585160Y745553D01*
X585271Y745479D01*
X585401Y745405D01*
X585586Y745312D01*
X585790Y745220D01*
X586049Y745146D01*
X586067D01*
X586086Y745127D01*
X586160D01*
X586234Y745109D01*
X586345Y745090D01*
X586475Y745072D01*
X586623Y745035D01*
X586808Y745016D01*
X587012Y744998D01*
X587252Y744961D01*
X587512Y744942D01*
X587808Y744924D01*
X588123Y744905D01*
X588475D01*
X588863Y744887D01*
X589271D01*
X589289D01*
X589363D01*
X589493D01*
X589641D01*
X589826D01*
X590030Y744905D01*
X590271D01*
X590511Y744924D01*
X591030Y744942D01*
X591530Y744979D01*
X591771Y745016D01*
X592011Y745053D01*
X592215Y745090D01*
X592382Y745127D01*
X592400D01*
X592419Y745146D01*
X592511Y745164D01*
X592659Y745220D01*
X592844Y745275D01*
X593030Y745368D01*
X593215Y745461D01*
X593381Y745572D01*
X593511Y745683D01*
X593530Y745701D01*
X593567Y745738D01*
X593604Y745812D01*
X593659Y745905D01*
X593715Y746016D01*
X593770Y746146D01*
X593789Y746294D01*
X593807Y746460D01*
Y746535D01*
X593789Y746627D01*
X593770Y746720D01*
X593733Y746849D01*
X593678Y746979D01*
X593604Y747127D01*
X593511Y747257D01*
X593493Y747275D01*
X593456Y747312D01*
X593381Y747368D01*
X593289Y747442D01*
X593141Y747534D01*
X592974Y747608D01*
X592752Y747701D01*
X592493Y747775D01*
X592474D01*
X592456Y747794D01*
X592382D01*
X592308Y747812D01*
X592196Y747831D01*
X592067Y747849D01*
X591919Y747868D01*
X591733Y747886D01*
X591511Y747923D01*
X591289Y747942D01*
X591011Y747960D01*
X590733Y747979D01*
X590400Y747997D01*
X590067D01*
X589678Y748016D01*
D02*
G37*
G36*
X568153Y672547D02*
X568042D01*
X567913Y672510D01*
X567765Y672473D01*
X567579Y672418D01*
X567394Y672307D01*
X567209Y672177D01*
X567024Y671992D01*
X567005Y671973D01*
X566950Y671881D01*
X566876Y671751D01*
X566802Y671566D01*
X566728Y671325D01*
X566654Y671010D01*
X566598Y670640D01*
X566579Y670214D01*
Y670196D01*
Y670159D01*
Y670103D01*
Y670011D01*
X566598Y669788D01*
X566635Y669529D01*
X566690Y669214D01*
X566783Y668918D01*
X566894Y668622D01*
X567061Y668381D01*
X567079Y668363D01*
X567154Y668288D01*
X567246Y668196D01*
X567394Y668103D01*
X567579Y667992D01*
X567783Y667900D01*
X568024Y667826D01*
X568283Y667807D01*
X568320D01*
X568394Y667826D01*
X568524Y667844D01*
X568690Y667881D01*
X568876Y667937D01*
X569079Y668048D01*
X569283Y668177D01*
X569468Y668363D01*
X569487Y668381D01*
X569542Y668474D01*
X569635Y668603D01*
X569727Y668770D01*
X569801Y669011D01*
X569894Y669288D01*
X569949Y669622D01*
X569968Y670011D01*
Y670029D01*
Y670066D01*
Y670122D01*
Y670214D01*
X569931Y670418D01*
X569894Y670696D01*
X569838Y670992D01*
X569727Y671307D01*
X569598Y671603D01*
X569412Y671881D01*
X569394Y671918D01*
X569320Y671992D01*
X569209Y672084D01*
X569061Y672214D01*
X568876Y672344D01*
X568653Y672436D01*
X568413Y672510D01*
X568153Y672547D01*
D02*
G37*
G36*
X1178112Y798074D02*
X1175149D01*
Y794815D01*
X1177668D01*
X1178038Y794833D01*
X1178427Y794852D01*
X1178816Y794870D01*
X1178982Y794889D01*
X1179130Y794907D01*
X1179278Y794944D01*
X1179371Y794963D01*
X1179390D01*
X1179445Y795000D01*
X1179538Y795037D01*
X1179630Y795092D01*
X1179871Y795259D01*
X1179982Y795370D01*
X1180093Y795500D01*
X1180112Y795518D01*
X1180130Y795574D01*
X1180186Y795648D01*
X1180241Y795759D01*
X1180278Y795907D01*
X1180334Y796074D01*
X1180352Y796259D01*
X1180371Y796463D01*
Y796500D01*
Y796574D01*
X1180352Y796685D01*
X1180334Y796833D01*
X1180278Y797000D01*
X1180223Y797166D01*
X1180130Y797352D01*
X1180019Y797500D01*
X1180001Y797518D01*
X1179964Y797574D01*
X1179871Y797629D01*
X1179760Y797722D01*
X1179630Y797814D01*
X1179464Y797888D01*
X1179260Y797962D01*
X1179038Y798018D01*
X1179019D01*
X1178964Y798037D01*
X1178853D01*
X1178686Y798055D01*
X1178279D01*
X1178112Y798074D01*
D02*
G37*
G36*
X1166187Y798277D02*
X1166113D01*
X1166021Y798259D01*
X1165928Y798240D01*
X1165798Y798203D01*
X1165669Y798148D01*
X1165521Y798074D01*
X1165391Y797981D01*
X1165372Y797962D01*
X1165335Y797925D01*
X1165280Y797851D01*
X1165206Y797759D01*
X1165113Y797611D01*
X1165039Y797444D01*
X1164947Y797222D01*
X1164873Y796963D01*
Y796944D01*
X1164854Y796926D01*
Y796852D01*
X1164836Y796777D01*
X1164817Y796666D01*
X1164799Y796537D01*
X1164780Y796389D01*
X1164762Y796204D01*
X1164725Y795981D01*
X1164706Y795759D01*
X1164687Y795481D01*
X1164669Y795204D01*
X1164650Y794870D01*
Y794537D01*
X1164632Y794148D01*
Y793741D01*
Y793722D01*
Y793648D01*
Y793519D01*
Y793370D01*
Y793185D01*
X1164650Y792982D01*
Y792741D01*
X1164669Y792500D01*
X1164687Y791982D01*
X1164725Y791463D01*
X1164743Y791223D01*
X1164780Y791000D01*
X1164817Y790797D01*
X1164854Y790611D01*
X1164873Y790574D01*
X1164891Y790482D01*
X1164947Y790334D01*
X1165002Y790167D01*
X1165095Y789982D01*
X1165187Y789797D01*
X1165298Y789630D01*
X1165410Y789501D01*
X1165428Y789482D01*
X1165465Y789463D01*
X1165539Y789408D01*
X1165632Y789371D01*
X1165743Y789315D01*
X1165872Y789260D01*
X1166021Y789241D01*
X1166187Y789223D01*
X1166261D01*
X1166354Y789241D01*
X1166447Y789260D01*
X1166576Y789297D01*
X1166706Y789334D01*
X1166835Y789408D01*
X1166965Y789501D01*
X1166983Y789519D01*
X1167020Y789556D01*
X1167095Y789630D01*
X1167169Y789741D01*
X1167243Y789871D01*
X1167335Y790056D01*
X1167428Y790260D01*
X1167502Y790519D01*
Y790537D01*
X1167521Y790556D01*
Y790630D01*
X1167539Y790704D01*
X1167558Y790815D01*
X1167576Y790945D01*
X1167613Y791093D01*
X1167632Y791278D01*
X1167650Y791482D01*
X1167687Y791722D01*
X1167706Y791982D01*
X1167724Y792278D01*
X1167743Y792593D01*
Y792944D01*
X1167761Y793333D01*
Y793741D01*
Y793759D01*
Y793833D01*
Y793963D01*
Y794111D01*
Y794296D01*
X1167743Y794500D01*
Y794741D01*
X1167724Y794981D01*
X1167706Y795500D01*
X1167669Y796000D01*
X1167632Y796240D01*
X1167595Y796481D01*
X1167558Y796685D01*
X1167521Y796852D01*
Y796870D01*
X1167502Y796889D01*
X1167483Y796981D01*
X1167428Y797129D01*
X1167372Y797315D01*
X1167280Y797500D01*
X1167187Y797685D01*
X1167076Y797851D01*
X1166965Y797981D01*
X1166946Y798000D01*
X1166909Y798037D01*
X1166835Y798074D01*
X1166743Y798129D01*
X1166632Y798185D01*
X1166502Y798240D01*
X1166354Y798259D01*
X1166187Y798277D01*
D02*
G37*
G36*
X1135080Y738587D02*
X1135006D01*
X1134914Y738569D01*
X1134821Y738550D01*
X1134692Y738513D01*
X1134562Y738476D01*
X1134432Y738402D01*
X1134303Y738309D01*
X1134284Y738291D01*
X1134247Y738254D01*
X1134173Y738180D01*
X1134099Y738069D01*
X1134025Y737939D01*
X1133932Y737754D01*
X1133840Y737550D01*
X1133766Y737291D01*
Y737273D01*
X1133747Y737254D01*
Y737180D01*
X1133729Y737106D01*
X1133710Y736995D01*
X1133692Y736865D01*
X1133655Y736717D01*
X1133636Y736532D01*
X1133618Y736328D01*
X1133581Y736088D01*
X1133562Y735828D01*
X1133544Y735532D01*
X1133525Y735217D01*
Y734865D01*
X1133507Y734477D01*
Y734069D01*
Y734051D01*
Y733977D01*
Y733847D01*
Y733699D01*
Y733514D01*
X1133525Y733310D01*
Y733069D01*
X1133544Y732829D01*
X1133562Y732310D01*
X1133599Y731810D01*
X1133636Y731570D01*
X1133673Y731329D01*
X1133710Y731125D01*
X1133747Y730958D01*
Y730940D01*
X1133766Y730921D01*
X1133784Y730829D01*
X1133840Y730681D01*
X1133895Y730496D01*
X1133988Y730310D01*
X1134081Y730125D01*
X1134192Y729959D01*
X1134303Y729829D01*
X1134321Y729810D01*
X1134358Y729773D01*
X1134432Y729736D01*
X1134525Y729681D01*
X1134636Y729625D01*
X1134766Y729570D01*
X1134914Y729551D01*
X1135080Y729533D01*
X1135155D01*
X1135247Y729551D01*
X1135340Y729570D01*
X1135469Y729607D01*
X1135599Y729662D01*
X1135747Y729736D01*
X1135877Y729829D01*
X1135895Y729847D01*
X1135932Y729884D01*
X1135988Y729959D01*
X1136062Y730051D01*
X1136154Y730199D01*
X1136228Y730366D01*
X1136321Y730588D01*
X1136395Y730847D01*
Y730866D01*
X1136414Y730884D01*
Y730958D01*
X1136432Y731032D01*
X1136451Y731144D01*
X1136469Y731273D01*
X1136488Y731421D01*
X1136506Y731607D01*
X1136543Y731829D01*
X1136562Y732051D01*
X1136580Y732329D01*
X1136599Y732606D01*
X1136617Y732940D01*
Y733273D01*
X1136636Y733662D01*
Y734069D01*
Y734088D01*
Y734162D01*
Y734291D01*
Y734440D01*
Y734625D01*
X1136617Y734828D01*
Y735069D01*
X1136599Y735310D01*
X1136580Y735828D01*
X1136543Y736347D01*
X1136525Y736588D01*
X1136488Y736810D01*
X1136451Y737013D01*
X1136414Y737199D01*
X1136395Y737236D01*
X1136377Y737328D01*
X1136321Y737476D01*
X1136266Y737643D01*
X1136173Y737828D01*
X1136080Y738013D01*
X1135969Y738180D01*
X1135858Y738309D01*
X1135840Y738328D01*
X1135803Y738347D01*
X1135729Y738402D01*
X1135636Y738439D01*
X1135525Y738495D01*
X1135395Y738550D01*
X1135247Y738569D01*
X1135080Y738587D01*
D02*
G37*
%LPD*%
D10*
X1313700Y827925D02*
G03*
X1313700Y827925I-1000J0D01*
G01*
X1066530Y612590D02*
G03*
X1066530Y612590I-1000J0D01*
G01*
X576400Y742950D02*
G03*
X576400Y742950I-1000J0D01*
G01*
X592650Y616665D02*
G03*
X592650Y616665I-1000J0D01*
G01*
X1037590Y473710D02*
Y506730D01*
Y473710D02*
X1162050D01*
Y506730D01*
X1037590D02*
X1162050D01*
D11*
X1005100Y856450D02*
G03*
X1005100Y856450I-2000J0D01*
G01*
X1035572Y845450D02*
G03*
X1035572Y845450I-4472J0D01*
G01*
D12*
X511611Y732597D02*
G03*
X555189Y732597I21789J8803D01*
G01*
X406400Y625090D02*
Y635090D01*
X365900Y670590D02*
X390400Y642590D01*
X422400D02*
X446900Y670590D01*
X401400Y810090D02*
X411400D01*
X406400Y805090D02*
Y815090D01*
X365900Y797590D02*
X446900D01*
X365900Y670590D02*
Y797590D01*
X390400Y642590D02*
X422400D01*
X446900Y670590D02*
Y797590D01*
X1343025Y716275D02*
Y820425D01*
X1298575Y716275D02*
X1343025D01*
X1298575D02*
Y820425D01*
X1343025D01*
X1055680Y631190D02*
Y694690D01*
X1151580Y631190D02*
Y694690D01*
X539750Y635000D02*
Y650240D01*
X572770Y635000D02*
Y650240D01*
X539750D02*
X572770D01*
X539750Y635000D02*
X572770D01*
X525780Y694690D02*
Y709930D01*
X558800Y694690D02*
Y709930D01*
X525780D02*
X558800D01*
X525780Y694690D02*
X558800D01*
X533400Y786130D02*
Y801370D01*
X566420Y786130D02*
Y801370D01*
X533400D02*
X566420D01*
X533400Y786130D02*
X566420D01*
X547370Y814070D02*
Y829310D01*
X514350Y814070D02*
Y829310D01*
Y814070D02*
X547370D01*
X514350Y829310D02*
X547370D01*
X1099820Y581660D02*
Y604520D01*
Y581660D02*
X1191260D01*
Y604520D01*
X1099820D02*
X1191260D01*
X1050290Y514350D02*
Y537210D01*
Y514350D02*
X1141730D01*
Y537210D01*
X1050290D02*
X1141730D01*
X1140460Y547370D02*
Y570230D01*
X1049020D02*
X1140460D01*
X1049020Y547370D02*
Y570230D01*
Y547370D02*
X1140460D01*
X514165Y754900D02*
X552635D01*
X514165D02*
X552635D01*
X552075Y625990D02*
X578225D01*
X577850Y789940D02*
X600710D01*
X577850Y698500D02*
Y789940D01*
Y698500D02*
X600710D01*
Y789940D01*
X621030Y656590D02*
Y679450D01*
X529590D02*
X621030D01*
X529590Y656590D02*
Y679450D01*
Y656590D02*
X621030D01*
X857250Y670068D02*
Y692928D01*
Y670068D02*
X948690D01*
Y692928D01*
X857250D02*
X948690D01*
X1122680Y782320D02*
Y805180D01*
Y782320D02*
X1214120D01*
Y805180D01*
X1122680D02*
X1214120D01*
X1178560Y722630D02*
Y745490D01*
X1087120D02*
X1178560D01*
X1087120Y722630D02*
Y745490D01*
Y722630D02*
X1178560D01*
D13*
X993140Y755650D02*
Y857250D01*
Y755650D02*
X1090930D01*
Y857250D01*
X993140D02*
X1090930D01*
X897139Y678999D02*
X893806D01*
X897139Y682331D01*
Y683164D01*
X896305Y683997D01*
X894639D01*
X893806Y683164D01*
X902137Y678999D02*
X898805D01*
X902137Y682331D01*
Y683164D01*
X901304Y683997D01*
X899638D01*
X898805Y683164D01*
X903803D02*
X904636Y683997D01*
X906302D01*
X907135Y683164D01*
Y679832D01*
X906302Y678999D01*
X904636D01*
X903803Y679832D01*
Y683164D01*
X908801Y678999D02*
Y683997D01*
X911301D01*
X912134Y683164D01*
Y681498D01*
X911301Y680665D01*
X908801D01*
X910468D02*
X912134Y678999D01*
D14*
X637540Y562610D02*
X739140D01*
X740410Y563880D02*
Y589280D01*
X637540Y590550D02*
X739140D01*
X636270Y563880D02*
Y589280D01*
X789940Y825500D02*
X891540D01*
X892810Y826770D02*
Y852170D01*
X789940Y853440D02*
X891540D01*
X788670Y826770D02*
Y852170D01*
X1079511Y676908D02*
Y661673D01*
X1089668D01*
X1094747D02*
Y676908D01*
X1099825Y671829D01*
X1104903Y676908D01*
Y661673D01*
X1109982Y674368D02*
X1112521Y676908D01*
X1117599D01*
X1120138Y674368D01*
Y671829D01*
X1117599Y669290D01*
X1115060D01*
X1117599D01*
X1120138Y666751D01*
Y664212D01*
X1117599Y661673D01*
X1112521D01*
X1109982Y664212D01*
X1135373Y676908D02*
X1125217D01*
Y669290D01*
X1130295Y671829D01*
X1132834D01*
X1135373Y669290D01*
Y664212D01*
X1132834Y661673D01*
X1127756D01*
X1125217Y664212D01*
X1140452Y674368D02*
X1142991Y676908D01*
X1148069D01*
X1150609Y674368D01*
Y671829D01*
X1148069Y669290D01*
X1150609Y666751D01*
Y664212D01*
X1148069Y661673D01*
X1142991D01*
X1140452Y664212D01*
Y666751D01*
X1142991Y669290D01*
X1140452Y671829D01*
Y674368D01*
X1142991Y669290D02*
X1148069D01*
X750595Y749298D02*
X748056Y751837D01*
X742978D01*
X740438Y749298D01*
Y746759D01*
X742978Y744220D01*
X748056D01*
X750595Y741681D01*
Y739142D01*
X748056Y736602D01*
X742978D01*
X740438Y739142D01*
X755673Y751837D02*
X765830D01*
X760752D01*
Y736602D01*
X770909D02*
Y751837D01*
X775987Y746759D01*
X781065Y751837D01*
Y736602D01*
X786144Y749298D02*
X788683Y751837D01*
X793761D01*
X796300Y749298D01*
Y746759D01*
X793761Y744220D01*
X796300Y741681D01*
Y739142D01*
X793761Y736602D01*
X788683D01*
X786144Y739142D01*
Y741681D01*
X788683Y744220D01*
X786144Y746759D01*
Y749298D01*
X788683Y744220D02*
X793761D01*
X811535Y749298D02*
X808996Y751837D01*
X803918D01*
X801379Y749298D01*
Y746759D01*
X803918Y744220D01*
X808996D01*
X811535Y741681D01*
Y739142D01*
X808996Y736602D01*
X803918D01*
X801379Y739142D01*
X816614Y736602D02*
X821692D01*
X819153D01*
Y751837D01*
X816614Y749298D01*
X829310D02*
X831849Y751837D01*
X836927D01*
X839466Y749298D01*
Y739142D01*
X836927Y736602D01*
X831849D01*
X829310Y739142D01*
Y749298D01*
X844545D02*
X847084Y751837D01*
X852162D01*
X854701Y749298D01*
Y746759D01*
X852162Y744220D01*
X849623D01*
X852162D01*
X854701Y741681D01*
Y739142D01*
X852162Y736602D01*
X847084D01*
X844545Y739142D01*
X869937Y751837D02*
X859780D01*
Y744220D01*
X864858D01*
X859780D01*
Y736602D01*
X875015Y749298D02*
X877554Y751837D01*
X882632D01*
X885172Y749298D01*
Y746759D01*
X882632Y744220D01*
X880093D01*
X882632D01*
X885172Y741681D01*
Y739142D01*
X882632Y736602D01*
X877554D01*
X875015Y739142D01*
X890250Y736602D02*
Y751837D01*
X897867D01*
X900407Y749298D01*
Y744220D01*
X897867Y741681D01*
X890250D01*
X915642Y751837D02*
X910563Y749298D01*
X905485Y744220D01*
Y739142D01*
X908024Y736602D01*
X913102D01*
X915642Y739142D01*
Y741681D01*
X913102Y744220D01*
X905485D01*
X1290327Y645158D02*
X1292866Y647698D01*
X1297944D01*
X1300483Y645158D01*
Y642619D01*
X1297944Y640080D01*
X1295405D01*
X1297944D01*
X1300483Y637541D01*
Y635002D01*
X1297944Y632463D01*
X1292866D01*
X1290327Y635002D01*
X1305562Y632463D02*
Y642619D01*
X1308101D01*
X1310640Y640080D01*
Y632463D01*
Y640080D01*
X1313179Y642619D01*
X1315718Y640080D01*
Y632463D01*
X1320797D02*
Y647698D01*
X1328414D01*
X1330953Y645158D01*
Y640080D01*
X1328414Y637541D01*
X1320797D01*
X1325875D02*
X1330953Y632463D01*
X1282716Y850898D02*
X1287794D01*
X1285255D01*
Y835663D01*
X1282716D01*
X1287794D01*
X1295412D02*
Y850898D01*
X1303029D01*
X1305568Y848358D01*
Y843280D01*
X1303029Y840741D01*
X1295412D01*
X1300490D02*
X1305568Y835663D01*
X1320803Y850898D02*
X1310647D01*
Y843280D01*
X1315725D01*
X1310647D01*
Y835663D01*
X1325882D02*
X1330960D01*
X1328421D01*
Y850898D01*
X1325882Y848358D01*
X1346195Y835663D02*
Y850898D01*
X1338578Y843280D01*
X1348734D01*
X1353813Y848358D02*
X1356352Y850898D01*
X1361430D01*
X1363969Y848358D01*
Y838202D01*
X1361430Y835663D01*
X1356352D01*
X1353813Y838202D01*
Y848358D01*
X1379204Y850898D02*
X1369048D01*
Y843280D01*
X1374126Y845819D01*
X1376665D01*
X1379204Y843280D01*
Y838202D01*
X1376665Y835663D01*
X1371587D01*
X1369048Y838202D01*
X430532Y490241D02*
X445768Y500398D01*
X430532D02*
X445768Y490241D01*
X430532Y505476D02*
Y515633D01*
Y510554D01*
X445768D01*
X430532Y530868D02*
X433072Y525789D01*
X438150Y520711D01*
X443228D01*
X445768Y523250D01*
Y528329D01*
X443228Y530868D01*
X440689D01*
X438150Y528329D01*
Y520711D01*
X433072Y535946D02*
X430532Y538485D01*
Y543564D01*
X433072Y546103D01*
X443228D01*
X445768Y543564D01*
Y538485D01*
X443228Y535946D01*
X433072D01*
X445768Y566416D02*
X430532D01*
X435611Y571495D01*
X430532Y576573D01*
X445768D01*
X435611Y584191D02*
Y589269D01*
X438150Y591808D01*
X445768D01*
Y584191D01*
X443228Y581651D01*
X440689Y584191D01*
Y591808D01*
X445768Y596886D02*
Y601965D01*
Y599426D01*
X430532D01*
Y596886D01*
X445768Y617200D02*
Y612122D01*
X443228Y609582D01*
X438150D01*
X435611Y612122D01*
Y617200D01*
X438150Y619739D01*
X440689D01*
Y609582D01*
X1050293Y786144D02*
Y796301D01*
Y791222D01*
X1065527D01*
X1050293Y801379D02*
X1065527D01*
Y811536D01*
Y816614D02*
X1050293D01*
Y824232D01*
X1052832Y826771D01*
X1057910D01*
X1060449Y824232D01*
Y816614D01*
X1065527Y842006D02*
Y831849D01*
X1055371Y842006D01*
X1052832D01*
X1050293Y839467D01*
Y834388D01*
X1052832Y831849D01*
X1050293Y857241D02*
Y847084D01*
X1057910D01*
X1055371Y852163D01*
Y854702D01*
X1057910Y857241D01*
X1062988D01*
X1065527Y854702D01*
Y849623D01*
X1062988Y847084D01*
X1052832Y862319D02*
X1050293Y864858D01*
Y869937D01*
X1052832Y872476D01*
X1062988D01*
X1065527Y869937D01*
Y864858D01*
X1062988Y862319D01*
X1052832D01*
X453401Y695963D02*
X458479D01*
X455940D01*
Y711198D01*
X453401Y708658D01*
X466097D02*
X468636Y711198D01*
X473714D01*
X476254Y708658D01*
Y698502D01*
X473714Y695963D01*
X468636D01*
X466097Y698502D01*
Y708658D01*
X481332D02*
X483871Y711198D01*
X488950D01*
X491489Y708658D01*
Y698502D01*
X488950Y695963D01*
X483871D01*
X481332Y698502D01*
Y708658D01*
X496567Y695963D02*
Y706119D01*
X504185D01*
X506724Y703580D01*
Y695963D01*
X521959Y711198D02*
X511802D01*
Y703580D01*
X516881D01*
X511802D01*
Y695963D01*
X471179Y635003D02*
Y650238D01*
X463561Y642620D01*
X473718D01*
X478796Y635003D02*
Y637542D01*
X481335D01*
Y635003D01*
X478796D01*
X491492Y650238D02*
X501649D01*
Y647698D01*
X491492Y637542D01*
Y635003D01*
X506727D02*
Y645159D01*
X514345D01*
X516884Y642620D01*
Y635003D01*
X532119Y650238D02*
X521962D01*
Y642620D01*
X527041D01*
X521962D01*
Y635003D01*
X560083Y822958D02*
X562622Y825498D01*
X567701D01*
X570240Y822958D01*
Y812802D01*
X567701Y810263D01*
X562622D01*
X560083Y812802D01*
Y822958D01*
X575318Y810263D02*
Y812802D01*
X577857D01*
Y810263D01*
X575318D01*
X588014Y822958D02*
X590553Y825498D01*
X595632D01*
X598171Y822958D01*
Y812802D01*
X595632Y810263D01*
X590553D01*
X588014Y812802D01*
Y822958D01*
X603249Y810263D02*
X608327D01*
X605788D01*
Y825498D01*
X603249Y822958D01*
X615945Y820419D02*
Y812802D01*
X618484Y810263D01*
X626102D01*
Y820419D01*
X641337Y825498D02*
X631180D01*
Y817880D01*
X636259D01*
X631180D01*
Y810263D01*
X429274Y849628D02*
X431813Y852168D01*
X436891D01*
X439430Y849628D01*
Y839472D01*
X436891Y836933D01*
X431813D01*
X429274Y839472D01*
Y849628D01*
X444509Y836933D02*
Y839472D01*
X447048D01*
Y836933D01*
X444509D01*
X457205Y849628D02*
X459744Y852168D01*
X464822D01*
X467361Y849628D01*
Y847089D01*
X464822Y844550D01*
X462283D01*
X464822D01*
X467361Y842011D01*
Y839472D01*
X464822Y836933D01*
X459744D01*
X457205Y839472D01*
X472440Y849628D02*
X474979Y852168D01*
X480057D01*
X482596Y849628D01*
Y847089D01*
X480057Y844550D01*
X477518D01*
X480057D01*
X482596Y842011D01*
Y839472D01*
X480057Y836933D01*
X474979D01*
X472440Y839472D01*
X487675Y847089D02*
Y839472D01*
X490214Y836933D01*
X497831D01*
Y847089D01*
X513066Y852168D02*
X502910D01*
Y844550D01*
X507988D01*
X502910D01*
Y836933D01*
D15*
X1099820Y483870D02*
Y490220D01*
Y496570D01*
Y490220D02*
X1109980Y496570D01*
X1099820Y490220D02*
X1115060D01*
X1099820D02*
X1109980Y483870D01*
Y496570D01*
X1093470Y490220D02*
X1099820D01*
X1079500Y477520D02*
Y502920D01*
X1120140D01*
Y477520D02*
Y502920D01*
X1079500Y477520D02*
X1120140D01*
M02*
