G04*
G04 #@! TF.GenerationSoftware,Altium Limited,Altium Designer,24.9.1 (31)*
G04*
G04 Layer_Color=12632256*
%FSLAX44Y44*%
%MOMM*%
G71*
G04*
G04 #@! TF.SameCoordinates,570542E3-00E4-430B-A899-0EB25D94C372*
G04*
G04*
G04 #@! TF.FilePolarity,Positive*
G04*
G01*
G75*
%ADD37C,6.0000*%
%ADD39C,1.5240*%
%ADD40R,1.5240X1.5240*%
%ADD42C,1.8450*%
%ADD43C,1.5000*%
%ADD46C,1.1300*%
%ADD47C,0.9000*%
%ADD48C,1.2000*%
%ADD49R,1.5240X1.5240*%
%ADD50C,1.4000*%
%ADD53C,1.1200*%
%ADD54C,1.6764*%
D37*
X406400Y684090D02*
D03*
Y756090D02*
D03*
D39*
X878840Y621030D02*
D03*
X904240D02*
D03*
Y773430D02*
D03*
X878840D02*
D03*
X701040Y621030D02*
D03*
X726440D02*
D03*
X751840D02*
D03*
X777240D02*
D03*
X802640D02*
D03*
X828040D02*
D03*
X853440D02*
D03*
Y773430D02*
D03*
X828040D02*
D03*
X802640D02*
D03*
X777240D02*
D03*
X751840D02*
D03*
X726440D02*
D03*
X701040D02*
D03*
X726440Y576580D02*
D03*
X675640D02*
D03*
X701040D02*
D03*
X878840Y839470D02*
D03*
X828040D02*
D03*
X853440D02*
D03*
D40*
X675640Y621030D02*
D03*
Y773430D02*
D03*
D42*
X1312700Y793750D02*
D03*
Y768350D02*
D03*
Y742950D02*
D03*
D43*
X1079500Y844550D02*
D03*
Y819150D02*
D03*
Y793750D02*
D03*
Y768350D02*
D03*
X1003300D02*
D03*
Y793750D02*
D03*
Y819150D02*
D03*
Y844550D02*
D03*
D46*
X1065530Y623240D02*
D03*
X1090930D02*
D03*
X1116330D02*
D03*
X1141730D02*
D03*
Y702640D02*
D03*
X1116330D02*
D03*
X1090930D02*
D03*
X1065530D02*
D03*
D47*
X565150Y642620D02*
D03*
X547370D02*
D03*
X551180Y702310D02*
D03*
X533400D02*
D03*
X558800Y793750D02*
D03*
X541020D02*
D03*
X521970Y821690D02*
D03*
X539750D02*
D03*
D48*
X1090930Y593090D02*
D03*
X1200150D02*
D03*
X1041400Y525780D02*
D03*
X1150620D02*
D03*
X1149350Y558800D02*
D03*
X1040130D02*
D03*
X589280Y798830D02*
D03*
Y689610D02*
D03*
X629920Y668020D02*
D03*
X520700D02*
D03*
X848360Y681498D02*
D03*
X957580D02*
D03*
X1113790Y793750D02*
D03*
X1223010D02*
D03*
X1187450Y734060D02*
D03*
X1078230D02*
D03*
D49*
X650240Y576580D02*
D03*
X802640Y839470D02*
D03*
D50*
X508400Y742950D02*
D03*
X533400D02*
D03*
X558400D02*
D03*
D53*
X582930Y615950D02*
D03*
X565150D02*
D03*
X547370D02*
D03*
D54*
X1049020Y490220D02*
D03*
X1150620D02*
D03*
M02*
