G04*
G04 #@! TF.GenerationSoftware,Altium Limited,Altium Designer,24.9.1 (31)*
G04*
G04 Layer_Color=2752767*
%FSLAX44Y44*%
%MOMM*%
G71*
G04*
G04 #@! TF.SameCoordinates,570542E3-00E4-430B-A899-0EB25D94C372*
G04*
G04*
G04 #@! TF.FilePolarity,Positive*
G04*
G01*
G75*
%ADD12C,0.1270*%
%ADD70C,0.1693*%
%ADD71C,0.1016*%
D12*
X401320Y679010D02*
X403860D01*
X406400Y681550D01*
X408940Y679010D01*
X411480D01*
Y681550D01*
X408940Y684090D01*
X411480Y686630D01*
Y689170D01*
X408940D01*
X406400Y686630D01*
X403860Y689170D01*
X401320D01*
Y686630D01*
X403860Y684090D01*
X401320Y681550D01*
Y679010D01*
Y751010D02*
X403860D01*
X406400Y753550D01*
X408940Y751010D01*
X411480D01*
Y753550D01*
X408940Y756090D01*
X411480Y758630D01*
Y761170D01*
X408940D01*
X406400Y758630D01*
X403860Y761170D01*
X401320D01*
Y758630D01*
X403860Y756090D01*
X401320Y753550D01*
Y751010D01*
X878840Y615950D02*
X873760Y626110D01*
X883920D01*
X878840Y615950D01*
X904240D02*
X899160Y626110D01*
X909320D01*
X904240Y615950D01*
Y768350D02*
X899160Y778510D01*
X909320D01*
X904240Y768350D01*
X878840D02*
X873760Y778510D01*
X883920D01*
X878840Y768350D01*
X675640Y615950D02*
X670560Y626110D01*
X680720D01*
X675640Y615950D01*
X701040D02*
X695960Y626110D01*
X706120D01*
X701040Y615950D01*
X726440D02*
X721360Y626110D01*
X731520D01*
X726440Y615950D01*
X751840D02*
X746760Y626110D01*
X756920D01*
X751840Y615950D01*
X777240D02*
X772160Y626110D01*
X782320D01*
X777240Y615950D01*
X802640D02*
X797560Y626110D01*
X807720D01*
X802640Y615950D01*
X828040D02*
X822960Y626110D01*
X833120D01*
X828040Y615950D01*
X853440D02*
X848360Y626110D01*
X858520D01*
X853440Y615950D01*
Y768350D02*
X848360Y778510D01*
X858520D01*
X853440Y768350D01*
X828040D02*
X822960Y778510D01*
X833120D01*
X828040Y768350D01*
X802640D02*
X797560Y778510D01*
X807720D01*
X802640Y768350D01*
X777240D02*
X772160Y778510D01*
X782320D01*
X777240Y768350D01*
X751840D02*
X746760Y778510D01*
X756920D01*
X751840Y768350D01*
X726440D02*
X721360Y778510D01*
X731520D01*
X726440Y768350D01*
X701040D02*
X695960Y778510D01*
X706120D01*
X701040Y768350D01*
X675640D02*
X670560Y778510D01*
X680720D01*
X675640Y768350D01*
X1307620Y793750D02*
X1312700Y798830D01*
X1317780Y793750D01*
X1312700Y788670D01*
X1307620Y793750D01*
Y768350D02*
X1312700Y773430D01*
X1317780Y768350D01*
X1312700Y763270D01*
X1307620Y768350D01*
Y742950D02*
X1312700Y748030D01*
X1317780Y742950D01*
X1312700Y737870D01*
X1307620Y742950D01*
X1074420Y839470D02*
X1076960Y844550D01*
X1074420Y849630D01*
X1079500Y847090D01*
X1084580Y849630D01*
X1082040Y844550D01*
X1084580Y839470D01*
X1079500Y842010D01*
X1074420Y839470D01*
Y814070D02*
X1076960Y819150D01*
X1074420Y824230D01*
X1079500Y821690D01*
X1084580Y824230D01*
X1082040Y819150D01*
X1084580Y814070D01*
X1079500Y816610D01*
X1074420Y814070D01*
Y788670D02*
X1076960Y793750D01*
X1074420Y798830D01*
X1079500Y796290D01*
X1084580Y798830D01*
X1082040Y793750D01*
X1084580Y788670D01*
X1079500Y791210D01*
X1074420Y788670D01*
Y763270D02*
X1076960Y768350D01*
X1074420Y773430D01*
X1079500Y770890D01*
X1084580Y773430D01*
X1082040Y768350D01*
X1084580Y763270D01*
X1079500Y765810D01*
X1074420Y763270D01*
X998220D02*
X1000760Y768350D01*
X998220Y773430D01*
X1003300Y770890D01*
X1008380Y773430D01*
X1005840Y768350D01*
X1008380Y763270D01*
X1003300Y765810D01*
X998220Y763270D01*
Y788670D02*
X1000760Y793750D01*
X998220Y798830D01*
X1003300Y796290D01*
X1008380Y798830D01*
X1005840Y793750D01*
X1008380Y788670D01*
X1003300Y791210D01*
X998220Y788670D01*
Y814070D02*
X1000760Y819150D01*
X998220Y824230D01*
X1003300Y821690D01*
X1008380Y824230D01*
X1005840Y819150D01*
X1008380Y814070D01*
X1003300Y816610D01*
X998220Y814070D01*
Y839470D02*
X1000760Y844550D01*
X998220Y849630D01*
X1003300Y847090D01*
X1008380Y849630D01*
X1005840Y844550D01*
X1008380Y839470D01*
X1003300Y842010D01*
X998220Y839470D01*
X560070Y637540D02*
Y647700D01*
X570230D01*
Y637540D01*
X560070D01*
X562102Y639572D02*
Y645668D01*
X568198D01*
Y639572D01*
X562102D01*
X542290Y637540D02*
Y647700D01*
X552450D01*
Y637540D01*
X542290D01*
X544322Y639572D02*
Y645668D01*
X550418D01*
Y639572D01*
X544322D01*
X546100Y697230D02*
Y707390D01*
X556260D01*
Y697230D01*
X546100D01*
X548132Y699262D02*
Y705358D01*
X554228D01*
Y699262D01*
X548132D01*
X528320Y697230D02*
Y707390D01*
X538480D01*
Y697230D01*
X528320D01*
X530352Y699262D02*
Y705358D01*
X536448D01*
Y699262D01*
X530352D01*
X553720Y788670D02*
Y798830D01*
X563880D01*
Y788670D01*
X553720D01*
X555752Y790702D02*
Y796798D01*
X561848D01*
Y790702D01*
X555752D01*
X535940Y788670D02*
Y798830D01*
X546100D01*
Y788670D01*
X535940D01*
X537972Y790702D02*
Y796798D01*
X544068D01*
Y790702D01*
X537972D01*
X516890Y816610D02*
Y826770D01*
X527050D01*
Y816610D01*
X516890D01*
X518922Y818642D02*
Y824738D01*
X525018D01*
Y818642D01*
X518922D01*
X534670Y816610D02*
Y826770D01*
X544830D01*
Y816610D01*
X534670D01*
X536702Y818642D02*
Y824738D01*
X542798D01*
Y818642D01*
X536702D01*
X1085850Y588010D02*
Y598170D01*
X1096010D01*
Y588010D01*
X1085850D01*
X1195070D02*
Y598170D01*
X1205230D01*
Y588010D01*
X1195070D01*
X1036320Y520700D02*
Y530860D01*
X1046480D01*
Y520700D01*
X1036320D01*
X1145540D02*
Y530860D01*
X1155700D01*
Y520700D01*
X1145540D01*
X1144270Y553720D02*
Y563880D01*
X1154430D01*
Y553720D01*
X1144270D01*
X1035050D02*
Y563880D01*
X1045210D01*
Y553720D01*
X1035050D01*
X726440Y571500D02*
X721360Y581660D01*
X731520D01*
X726440Y571500D01*
Y573532D02*
X723392Y579628D01*
X729488D01*
X726440Y573532D01*
X650240Y571500D02*
X645160Y581660D01*
X655320D01*
X650240Y571500D01*
Y573532D02*
X647192Y579628D01*
X653288D01*
X650240Y573532D01*
X675640Y571500D02*
X670560Y581660D01*
X680720D01*
X675640Y571500D01*
Y573532D02*
X672592Y579628D01*
X678688D01*
X675640Y573532D01*
X701040Y571500D02*
X695960Y581660D01*
X706120D01*
X701040Y571500D01*
Y573532D02*
X697992Y579628D01*
X704088D01*
X701040Y573532D01*
X505860Y740410D02*
Y737870D01*
X510940D01*
Y740410D01*
X513480D01*
Y745490D01*
X510940D01*
Y748030D01*
X505860D01*
Y745490D01*
X503320D01*
Y740410D01*
X505860D01*
X530860D02*
Y737870D01*
X535940D01*
Y740410D01*
X538480D01*
Y745490D01*
X535940D01*
Y748030D01*
X530860D01*
Y745490D01*
X528320D01*
Y740410D01*
X530860D01*
X555860D02*
Y737870D01*
X560940D01*
Y740410D01*
X563480D01*
Y745490D01*
X560940D01*
Y748030D01*
X555860D01*
Y745490D01*
X553320D01*
Y740410D01*
X555860D01*
X878840Y834390D02*
X873760Y844550D01*
X883920D01*
X878840Y834390D01*
Y836422D02*
X875792Y842518D01*
X881888D01*
X878840Y836422D01*
X802640Y834390D02*
X797560Y844550D01*
X807720D01*
X802640Y834390D01*
Y836422D02*
X799592Y842518D01*
X805688D01*
X802640Y836422D01*
X828040Y834390D02*
X822960Y844550D01*
X833120D01*
X828040Y834390D01*
Y836422D02*
X824992Y842518D01*
X831088D01*
X828040Y836422D01*
X853440Y834390D02*
X848360Y844550D01*
X858520D01*
X853440Y834390D01*
Y836422D02*
X850392Y842518D01*
X856488D01*
X853440Y836422D01*
X582930Y610870D02*
X585470Y613410D01*
X588010D01*
X585470Y615950D01*
X588010Y618490D01*
X585470D01*
X582930Y621030D01*
X580390Y618490D01*
X577850D01*
X580390Y615950D01*
X577850Y613410D01*
X580390D01*
X582930Y610870D01*
X565150D02*
X567690Y613410D01*
X570230D01*
X567690Y615950D01*
X570230Y618490D01*
X567690D01*
X565150Y621030D01*
X562610Y618490D01*
X560070D01*
X562610Y615950D01*
X560070Y613410D01*
X562610D01*
X565150Y610870D01*
X547370D02*
X549910Y613410D01*
X552450D01*
X549910Y615950D01*
X552450Y618490D01*
X549910D01*
X547370Y621030D01*
X544830Y618490D01*
X542290D01*
X544830Y615950D01*
X542290Y613410D01*
X544830D01*
X547370Y610870D01*
X584200Y793750D02*
Y803910D01*
X594360D01*
Y793750D01*
X584200D01*
Y684530D02*
Y694690D01*
X594360D01*
Y684530D01*
X584200D01*
X624840Y662940D02*
Y673100D01*
X635000D01*
Y662940D01*
X624840D01*
X515620D02*
Y673100D01*
X525780D01*
Y662940D01*
X515620D01*
X843280Y676418D02*
Y686578D01*
X853440D01*
Y676418D01*
X843280D01*
X952500D02*
Y686578D01*
X962660D01*
Y676418D01*
X952500D01*
X1108710Y788670D02*
Y798830D01*
X1118870D01*
Y788670D01*
X1108710D01*
X1217930D02*
Y798830D01*
X1228090D01*
Y788670D01*
X1217930D01*
X1182370Y728980D02*
Y739140D01*
X1192530D01*
Y728980D01*
X1182370D01*
X1073150D02*
Y739140D01*
X1083310D01*
Y728980D01*
X1073150D01*
X650240Y834390D02*
X652780Y836930D01*
X655320D01*
X652780Y839470D01*
X655320Y842010D01*
X652780D01*
X650240Y844550D01*
X647700Y842010D01*
X645160D01*
X647700Y839470D01*
X645160Y836930D01*
X647700D01*
X650240Y834390D01*
Y836422D02*
X651764Y837946D01*
X653288D01*
X651764Y839470D01*
X653288Y840994D01*
X651764D01*
X650240Y842518D01*
X648716Y840994D01*
X647192D01*
X648716Y839470D01*
X647192Y837946D01*
X648716D01*
X650240Y836422D01*
X1168400Y675640D02*
X1170940Y678180D01*
X1173480D01*
X1170940Y680720D01*
X1173480Y683260D01*
X1170940D01*
X1168400Y685800D01*
X1165860Y683260D01*
X1163320D01*
X1165860Y680720D01*
X1163320Y678180D01*
X1165860D01*
X1168400Y675640D01*
Y677672D02*
X1169924Y679196D01*
X1171448D01*
X1169924Y680720D01*
X1171448Y682244D01*
X1169924D01*
X1168400Y683768D01*
X1166876Y682244D01*
X1165352D01*
X1166876Y680720D01*
X1165352Y679196D01*
X1166876D01*
X1168400Y677672D01*
Y617220D02*
X1170940Y619760D01*
X1173480D01*
X1170940Y622300D01*
X1173480Y624840D01*
X1170940D01*
X1168400Y627380D01*
X1165860Y624840D01*
X1163320D01*
X1165860Y622300D01*
X1163320Y619760D01*
X1165860D01*
X1168400Y617220D01*
Y619252D02*
X1169924Y620776D01*
X1171448D01*
X1169924Y622300D01*
X1171448Y623824D01*
X1169924D01*
X1168400Y625348D01*
X1166876Y623824D01*
X1165352D01*
X1166876Y622300D01*
X1165352Y620776D01*
X1166876D01*
X1168400Y619252D01*
X650240Y613410D02*
X652780Y615950D01*
X655320D01*
X652780Y618490D01*
X655320Y621030D01*
X652780D01*
X650240Y623570D01*
X647700Y621030D01*
X645160D01*
X647700Y618490D01*
X645160Y615950D01*
X647700D01*
X650240Y613410D01*
Y615442D02*
X651764Y616966D01*
X653288D01*
X651764Y618490D01*
X653288Y620014D01*
X651764D01*
X650240Y621538D01*
X648716Y620014D01*
X647192D01*
X648716Y618490D01*
X647192Y616966D01*
X648716D01*
X650240Y615442D01*
Y720090D02*
X652780Y722630D01*
X655320D01*
X652780Y725170D01*
X655320Y727710D01*
X652780D01*
X650240Y730250D01*
X647700Y727710D01*
X645160D01*
X647700Y725170D01*
X645160Y722630D01*
X647700D01*
X650240Y720090D01*
Y722122D02*
X651764Y723646D01*
X653288D01*
X651764Y725170D01*
X653288Y726694D01*
X651764D01*
X650240Y728218D01*
X648716Y726694D01*
X647192D01*
X648716Y725170D01*
X647192Y723646D01*
X648716D01*
X650240Y722122D01*
D70*
X1070610Y623240D02*
G03*
X1070610Y623240I-5080J0D01*
G01*
X1096010D02*
G03*
X1096010Y623240I-5080J0D01*
G01*
X1121410D02*
G03*
X1121410Y623240I-5080J0D01*
G01*
X1146810D02*
G03*
X1146810Y623240I-5080J0D01*
G01*
Y702640D02*
G03*
X1146810Y702640I-5080J0D01*
G01*
X1121410D02*
G03*
X1121410Y702640I-5080J0D01*
G01*
X1096010D02*
G03*
X1096010Y702640I-5080J0D01*
G01*
X1070610D02*
G03*
X1070610Y702640I-5080J0D01*
G01*
X1054100Y490220D02*
G03*
X1054100Y490220I-5080J0D01*
G01*
X1155700D02*
G03*
X1155700Y490220I-5080J0D01*
G01*
D71*
X1068578Y623240D02*
G03*
X1068578Y623240I-3048J0D01*
G01*
X1093978D02*
G03*
X1093978Y623240I-3048J0D01*
G01*
X1119378D02*
G03*
X1119378Y623240I-3048J0D01*
G01*
X1144778D02*
G03*
X1144778Y623240I-3048J0D01*
G01*
Y702640D02*
G03*
X1144778Y702640I-3048J0D01*
G01*
X1119378D02*
G03*
X1119378Y702640I-3048J0D01*
G01*
X1093978D02*
G03*
X1093978Y702640I-3048J0D01*
G01*
X1068578D02*
G03*
X1068578Y702640I-3048J0D01*
G01*
M02*
