G04*
G04 #@! TF.GenerationSoftware,Altium Limited,Altium Designer,24.9.1 (31)*
G04*
G04 Layer_Color=8388736*
%FSLAX44Y44*%
%MOMM*%
G71*
G04*
G04 #@! TF.SameCoordinates,570542E3-00E4-430B-A899-0EB25D94C372*
G04*
G04*
G04 #@! TF.FilePolarity,Negative*
G04*
G01*
G75*
%ADD16C,6.2032*%
%ADD17R,6.2032X6.2032*%
%ADD18C,1.7272*%
%ADD19R,1.7272X1.7272*%
%ADD20R,2.0482X2.0482*%
%ADD21C,2.0482*%
%ADD22C,1.7032*%
%ADD23R,1.7032X1.7032*%
%ADD24R,1.3332X1.3332*%
%ADD25C,1.3332*%
%ADD26C,1.1032*%
%ADD27C,1.4032*%
%ADD28R,1.7272X1.7272*%
%ADD29C,1.6032*%
%ADD30R,1.6032X1.6032*%
%ADD31R,1.3232X1.3232*%
%ADD32C,1.3232*%
%ADD33C,1.8796*%
%ADD34C,1.4732*%
D16*
X406400Y684090D02*
D03*
D17*
Y756090D02*
D03*
D18*
X878840Y621030D02*
D03*
X904240D02*
D03*
Y773430D02*
D03*
X878840D02*
D03*
X701040Y621030D02*
D03*
X726440D02*
D03*
X751840D02*
D03*
X777240D02*
D03*
X802640D02*
D03*
X828040D02*
D03*
X853440D02*
D03*
Y773430D02*
D03*
X828040D02*
D03*
X802640D02*
D03*
X777240D02*
D03*
X751840D02*
D03*
X726440D02*
D03*
X701040D02*
D03*
X726440Y576580D02*
D03*
X675640D02*
D03*
X701040D02*
D03*
X878840Y839470D02*
D03*
X828040D02*
D03*
X853440D02*
D03*
D19*
X675640Y621030D02*
D03*
Y773430D02*
D03*
D20*
X1312700Y793750D02*
D03*
D21*
Y768350D02*
D03*
Y742950D02*
D03*
D22*
X1079500Y844550D02*
D03*
Y819150D02*
D03*
Y793750D02*
D03*
Y768350D02*
D03*
X1003300D02*
D03*
Y793750D02*
D03*
Y819150D02*
D03*
D23*
Y844550D02*
D03*
D24*
X1065530Y623240D02*
D03*
D25*
X1090930D02*
D03*
X1116330D02*
D03*
X1141730D02*
D03*
Y702640D02*
D03*
X1116330D02*
D03*
X1090930D02*
D03*
X1065530D02*
D03*
D26*
X565150Y642620D02*
D03*
X547370D02*
D03*
X551180Y702310D02*
D03*
X533400D02*
D03*
X558800Y793750D02*
D03*
X541020D02*
D03*
X521970Y821690D02*
D03*
X539750D02*
D03*
D27*
X1090930Y593090D02*
D03*
X1200150D02*
D03*
X1041400Y525780D02*
D03*
X1150620D02*
D03*
X1149350Y558800D02*
D03*
X1040130D02*
D03*
X589280Y798830D02*
D03*
Y689610D02*
D03*
X629920Y668020D02*
D03*
X520700D02*
D03*
X848360Y681498D02*
D03*
X957580D02*
D03*
X1113790Y793750D02*
D03*
X1223010D02*
D03*
X1187450Y734060D02*
D03*
X1078230D02*
D03*
D28*
X650240Y576580D02*
D03*
X802640Y839470D02*
D03*
D29*
X508400Y742950D02*
D03*
X533400D02*
D03*
D30*
X558400D02*
D03*
D31*
X582930Y615950D02*
D03*
D32*
X565150D02*
D03*
X547370D02*
D03*
D33*
X1049020Y490220D02*
D03*
X1150620D02*
D03*
D34*
X650240Y839470D02*
D03*
X1168400Y680720D02*
D03*
Y622300D02*
D03*
X650240Y618490D02*
D03*
Y725170D02*
D03*
M02*
